# xmcd CD database file generated by Grip 3.3.1
# 
# Track frame offsets:
#       150
#       19492
#       45730
#       63283
#       90283
#       116553
#       182752
#       200660
# 
# Disc length: 3855 seconds
# 
# Revision: 1
# Processed by: cddbd v1.5.2PL0 Copyright (c) Steve Scherf et al.
# Submitted via: Grip 3.3.1
# 
DISCID=680f0d08
DTITLE=META4: Antti Tikkanen (violin), Minna Pensola (violin), Atte Kilp
DTITLE=eläinen (viola), Tomas Djupsjöbacka (cello) - Pia Freund (sopran
DTITLE=o), Marko Myöhänen (electronics) - Kaija Saariaho - Chamber Wor
DTITLE=ks for Strings, Vol. II/II
DYEAR=2016
DGENRE=Classical
TTITLE0=Fleurs de Neige (1998) for string quartet
TTITLE1=Aure (2011) for violin and viola
TTITLE2=Du gick, flög (1982) for soprano and cello
TTITLE3=Nocturne (1994) for viola
TTITLE4=Changing Light (2002) for soprano and violin
TTITLE5=de la terre (1991) for violin and electronics
TTITLE6=Die Aussicht (1996) for soprano and string quartet
TTITLE7=Terra Memoria (2006) for string quartet
EXTD=
EXTT0=
EXTT1=
EXTT2=
EXTT3=
EXTT4=
EXTT5=
EXTT6=
EXTT7=
PLAYORDER=
